<?xml version="1.0" standalone="no"?>
<!DOCTYPE svg PUBLIC "-//W3C//DTD SVG 1.1//EN" "http://www.w3.org/Graphics/SVG/1.1/DTD/svg11.dtd" >
<!--
2013-9-30: Created.
-->
<svg>
<metadata>
Created by iconfont
</metadata>
<defs>

<font id="ucd" horiz-adv-x="1024" >
  <font-face
    font-family="ucd"
    font-weight="500"
    font-stretch="normal"
    units-per-em="1024"
    ascent="896"
    descent="-128"
  />
    <missing-glyph />
    
    <glyph glyph-name="device" unicode="&#59008;" d="M186.368 511.317333h650.24l107.178667-87.04H82.602667l103.765333 87.04zM935.594667 425.642667H90.794667c-5.12 0-9.216-4.096-9.216-9.216v-1.024l14.336-162.474667c0.682667-5.461333 5.12-9.557333 10.581333-9.898667h813.397333c5.461333 0 10.24 4.437333 10.581334 9.898667l14.336 162.474667c0.682667 5.12-3.072 9.557333-7.850667 10.24h-1.365333z m-12.970667-90.112c-2.389333-23.893333-8.874667-46.762667-19.114667-68.608H123.562667c-10.24 21.504-16.384 44.714667-19.114667 68.608-2.389333 23.552-0.682667 47.104 5.12 69.973333h570.026667c4.437333-2.048 8.533333-4.437333 11.946666-6.485333 19.114667-11.605333 48.810667-8.533333 65.194667-8.533334h163.84c3.413333-18.090667 4.096-36.522667 2.048-54.954666z"  horiz-adv-x="1024" />

    
    <glyph glyph-name="apac" unicode="&#58965;" d="M608.256 520.192H415.744c-22.016 0-39.936-17.92-39.936-39.936v-193.024c0-22.016 17.92-39.936 39.936-39.936h193.024c22.016 0 39.936 17.92 39.936 39.936V480.256c-0.512 22.016-18.432 39.936-40.448 39.936z m-192.512-10.752h193.024c15.872 0 28.672-12.8 28.672-28.672v-193.024c0-15.872-12.8-28.672-28.672-28.672H415.744c-15.872 0-28.672 12.8-28.672 28.672V480.256c0 15.872 12.8 29.184 28.672 29.184zM512.512 436.224c-22.528 0-44.032-8.192-60.928-23.04-4.096-3.584-4.608-9.728-1.024-13.824 3.072-3.584 8.704-4.096 12.8-1.536 27.648 24.576 69.632 24.576 97.28-0.512 4.096-3.072 10.24-2.048 13.312 2.048 3.072 4.096 2.56 9.728-1.536 12.8-15.872 15.872-37.888 24.064-59.904 24.064z m-34.816-68.096c3.072-3.584 8.192-4.096 11.776-1.024 6.656 5.12 14.336 7.68 22.528 8.192 8.192 0 16.384-2.56 22.528-8.192 3.584-3.072 9.216-2.56 11.776 1.024 3.584 3.584 3.584 9.728 0 13.312l-1.024 1.024c-9.728 7.68-21.504 12.288-34.304 11.776-12.288 0-24.576-4.096-34.304-11.776-3.072-4.096-3.072-10.752 1.024-14.336z m34.816-14.336h-1.024c-6.144-0.512-10.752-5.632-10.24-11.776 0-2.56 1.536-5.12 3.072-7.168 4.096-4.096 11.264-4.608 15.36 0 4.096 4.096 4.608 11.264 0 15.36-1.536 2.56-4.608 3.584-7.168 3.584z"  horiz-adv-x="1024" />

    
    <glyph glyph-name="user2" unicode="&#58966;" d="M442.203394 428.783949c-1.319085 8.78391-2.508261 17.527847-2.508261 26.441666a86.330142 86.330142 0 0 0 1.568912 18.457203 2.348372 2.348372 0 0 1-0.909369 2.558226c-1.898684 1.838725-3.797367 3.67745-5.616106 5.59612-0.659543 0.719501-0.999307 1.26912 0.499653 1.429009 9.163646 1.199169 16.438602 5.756009 22.884134 11.831796a88.30877 88.30877 0 0 0 30.478867 19.986143c21.724937 8.234291 41.55119 4.476896 59.958427-8.544076a53.662792 53.662792 0 0 0 14.709801-15.499254 3.877312 3.877312 0 0 1 2.14851-1.598891c9.083702-2.79806 13.870383-8.943799 15.109524-17.987528 1.738794-12.141582 1.159196-24.123274-0.579598-36.194904-0.329771-2.068566-0.569605-4.147125-0.899377-6.305628-0.249827-1.518947-0.579598-3.117838-0.829425-4.636785-1.079252-3.917284-1.568912-7.994457-3.057879-12.141582a72.629642 72.629642 0 0 0-5.945878 12.621249 156.121752 156.121752 0 0 0-8.673986 38.673186c-0.249827 2.238448-0.249827 2.238448-2.398337 1.119224-2.398337-1.279113-4.876619-2.558226-7.264962-3.917284-18.097452-10.15296-37.503996-12.541304-57.829904-8.993764a104.857296 104.857296 0 0 0-30.558811 9.833182c-1.488968 0.799446-1.998614 0.399723-2.148511-1.119224-0.249827-2.558226-0.659543-4.996536-1.079251-7.51479-2.228455-13.260805-5.526168-26.201833-11.81181-38.263469-0.329771-0.719501-0.48966-1.678836-1.728802-1.998615-0.909369 3.837339-1.818739 7.584741-2.728108 11.422081a19.486489 19.486489 0 0 1-0.789453 4.746709zM512.104927 347.11057800000003c-25.622235 0-44.519132 15.819032-45.788252 16.908276a60.278206 60.278206 0 0 0-18.407237 43.479853v0.509647a7.195011 7.195011 0 0 1 4.107152 4.326999c5.716037 10.992378 9.503411 23.273863 12.261498 39.712465 0.159889 0.919363 0.309785 1.858711 0.459682 2.818046a112.462023 112.462023 0 0 1 27.540904-8.154346 104.927248 104.927248 0 0 1 17.857618-1.578905A87.449366 87.449366 0 0 1 553.416284 456.304867c0.929356 0.529633 1.878697 1.049272 2.838032 1.568912a155.462209 155.462209 0 0 1 8.354207-34.825853 76.167189 76.167189 0 0 1 6.355594-13.47066l1.998614-3.267735a60.867797 60.867797 0 0 0-22.784202-46.227947c-11.921734-8.604034-24.722858-12.990993-38.053616-12.990993zM414.412663 277.428892c1.998614 32.977135 26.621542 60.787852 60.597984 71.870168 9.443452-6.595427 21.874833-10.602649 35.505382-10.602648a62.736501 62.736501 0 0 1 33.666657 9.383494c32.14771-11.81181 55.131774-38.803096 57.080423-70.651014a21.565048 21.565048 0 0 0-21.565048-21.555055h-38.273463a10.992378 10.992378 0 0 0-1.738794 0.139903h-63.705829a10.912434 10.912434 0 0 0-1.728801-0.139903h-38.283456A21.555055 21.555055 0 0 0 414.412663 277.428892z"  horiz-adv-x="1024" />

    
    <glyph glyph-name="exit" unicode="&#59080;" d="M735.896945 189.98262899999997c-17.587977 0-31.778277-14.290231-31.778276-31.778277v-61.957646c0-17.687909-14.390163-32.178003-32.178003-32.178003h-447.69396c-17.687909 0-32.178003 14.390163-32.178003 32.178003v575.606519c0 17.687909 14.390163 32.178003 32.178003 32.178004h447.69396c17.687909 0 32.178003-14.390163 32.178003-32.178004v-61.957646c0-17.587977 14.290231-31.778277 31.778276-31.778276 17.587977 0 31.778277 14.290231 31.778277 31.778276v61.957646c0 52.763931-42.970626 95.734556-95.734556 95.734557h-447.69396c-52.763931 0-95.734556-42.970626-95.734556-95.734557v-575.606519c0-52.763931 42.970626-95.734556 95.734556-95.734556h447.69396c52.763931 0 95.734556 42.970626 95.734556 95.734556v61.957646c0 17.488045-14.290231 31.778277-31.778277 31.778277zM885.294818 406.434664l-125.913926 126.913243c-12.391529 12.491461-32.477798 12.591393-44.969259 0.199863s-12.591393-32.477798-0.199864-44.969259l72.150679-72.650337H448.093686c-17.587977 0-31.778277-14.290231-31.778277-31.778276 0-17.587977 14.290231-31.778277 31.778277-31.778277H786.462379l-72.150678-72.650337c-12.391529-12.491461-12.291598-32.57773 0.199863-44.969259 6.195765-6.195765 14.290231-9.193715 22.384698-9.193715 8.194398 0 16.388797 3.097882 22.584562 9.393578l125.913926 126.913243c12.291598 12.091734 12.291598 32.178003-0.099932 44.569533z"  horiz-adv-x="1024" />

    
    <glyph glyph-name="warning" unicode="&#59026;" d="M864 64h-64V288c0 159.1-128.9 288-288 288-159 0-288-128.9-288-288v-224h-64c-17.7 0-32-14.3-32-32s14.3-32 32-32h704c17.7 0 32 14.3 32 32s-14.3 32-32 32z m-320 0v96c0 17.7-14.3 32-32 32s-32-14.3-32-32v-96H288V288c0 59.8 23.3 116.1 65.6 158.4C395.9 488.7 452.2 512 512 512c59.8 0 116.1-23.3 158.4-65.6C712.7 404.1 736 347.79999999999995 736 288v-224H544zM512 640c17.7 0 32 14.3 32 32v64c0 17.7-14.3 32-32 32s-32-14.3-32-32v-64c0-17.7 14.4-32 32-32zM722.8 562.8c8.2 0 16.4 3.1 22.6 9.4l45.3 45.3c12.5 12.5 12.5 32.8 0 45.3s-32.8 12.5-45.3 0l-45.3-45.3c-12.5-12.5-12.5-32.8 0-45.3 6.3-6.3 14.5-9.4 22.7-9.4zM278.6 572.1c6.2-6.2 14.4-9.4 22.6-9.4s16.4 3.1 22.6 9.4c12.5 12.5 12.5 32.8 0 45.3l-45.3 45.3c-12.5 12.5-32.8 12.5-45.3 0s-12.5-32.8 0-45.3l45.4-45.3zM512 448c-53 0-96-43-96-96s43-96 96-96 96 43 96 96-43 96-96 96z m0-128c-17.6 0-32 14.4-32 32s14.4 32 32 32 32-14.4 32-32-14.4-32-32-32z"  horiz-adv-x="1024" />

    
    <glyph glyph-name="safe" unicode="&#59007;" d="M801.6 601.8c-123.1 36.1-216.4 112.5-260.9 154.7-8.1 7.7-18.4 11.5-28.8 11.5s-20.7-3.8-28.8-11.5c-44.5-42.2-137.8-118.6-260.9-154.7-17.9-5.2-30.3-21.6-30.3-40.2v-237c0-3.2 0.4-6.3 1.1-9.4C202.3 275 274.6 0 511.9 0c237.3 0 309.6 275 318.9 315.1 0.7 3.1 1.1 6.2 1.1 9.4v237c0 18.7-12.4 35.1-30.3 40.3z m-33.7-274.7c-4.4-18.4-22.9-86.7-64.4-149.3-23-34.7-49.3-61.9-78.1-80.7-34-22.3-71.2-33.1-113.6-33.1s-79.6 10.8-113.6 33.1c-28.8 18.9-55 46-78.1 80.7-41.5 62.6-59.9 130.9-64.4 149.3V545.2C371.4 582.6 461 650.4 511.9 696c50.9-45.6 140.5-113.5 256-150.8v-218.1zM374.8 386.3c-12.5 12.5-32.8 12.5-45.3 0s-12.5-32.8 0-45.3l107.7-107.7c6.2-6.2 14.4-9.4 22.6-9.4s16.4 3.1 22.6 9.4l212 212c12.5 12.5 12.5 32.8 0 45.3s-32.8 12.5-45.3 0L459.8 301.2l-85 85.1z"  horiz-adv-x="1024" />

    
    <glyph glyph-name="vpn" unicode="&#59028;" d="M895.9 319.4V704.6c0 35-28.4 63.4-63.4 63.4H191.3c-35 0-63.4-28.4-63.4-63.4v-385.3c0-35 28.4-63.4 63.4-63.4h641.2c35 0.1 63.4 28.5 63.4 63.5Zm-64 0.6h-640V704h640v-384ZM362.3 421l63.2 182H385l-39.4-128.2c-2-6.5-3.4-12.7-4-18.5h-0.7c-0.5 5.6-1.7 11.6-3.6 18L297.9 603H256l62.4-182h43.9ZM490.6 484.4h22.5c19.4 0 35.7 5.4 48.8 16.2 13.7 11.2 20.5 26.2 20.5 44.8 0 38.4-22.6 57.6-67.9 57.6h-62.6v-182h38.8v63.4Zm0 88.5h17.2c22.6 0 33.8-9.7 33.8-29 0-19.8-11.4-29.7-34.2-29.7h-16.8v58.7ZM642.8 524.5c0 13.1-0.4 22.8-1.1 29h0.6c1.8-3.8 4.7-8.7 8.7-14.8L728.1 421h39.7V603H731v-103.8c0-12.4 0.4-20.8 1.2-25.1h-0.6c-1.1 2-4.1 6.9-9 14.5L648.3 603H606v-182h36.8V524.5ZM864 160H635.9c-14.2 55.2-64.3 96-124 96s-109.8-40.8-124-96h-228c-17.7 0-32-14.3-32-32s14.3-32 32-32H388c14.2-55.2 64.3-96 124-96s109.8 40.8 124 96h228c17.7 0 32 14.3 32 32s-14.4 32-32 32Zm-352.1-96c-35.3 0-64 28.7-64 64s28.7 64 64 64 64-28.7 64-64-28.7-64-64-64Z"  horiz-adv-x="1024" />

    
    <glyph glyph-name="customerservice" unicode="&#59029;" d="M896 384c0 51.8-10.2 102.1-30.2 149.5-19.3 45.7-47 86.8-82.3 122-35.3 35.3-76.3 62.9-122 82.3-47.4 20-97.7 30.2-149.5 30.2s-102.1-10.2-149.5-30.2c-45.7-19.3-86.8-47-122-82.3-35.3-35.3-62.9-76.3-82.3-122-20-47.4-30.2-97.7-30.2-149.5v-192h192V384H192c0 176.4 143.6 320 320 320s320-143.5 320-320H704v-192h128c0-88.5-46.2-128-320-128v-64c142.9 0 228 10.3 284.6 34.6 34.3 14.7 59.1 34.9 75.6 61.6 16 25.9 23.8 57.2 23.8 95.8V384zM256 256h-64v64h64v-64z m512 64h64v-64h-64v64z"  horiz-adv-x="1024" />

    
    <glyph glyph-name="disconnect" unicode="&#59034;" d="M489.3 225.6L355.9 92.1c-37.4-37.4-98.3-37.4-135.8 0-37.4 37.4-37.4 98.3 0 135.8l133.3 133.3 0.1 0.1c12.5 12.5 12.5 32.8 0 45.3s-32.8 12.5-45.3 0L174.8 273.2c-62.5-62.5-62.5-163.8 0-226.3s163.8-62.5 226.3 0L533.2 179c0.5 0.4 0.9 0.9 1.4 1.3 12.5 12.5 12.5 32.8 0 45.3s-32.8 12.5-45.3 0zM489.4 406.6c-12.5-12.5-12.5-32.8 0-45.3s32.8-12.5 45.3 0 12.5 32.8 0 45.3-32.8 12.5-45.3 0zM640 512m-32 0a32 32 0 1 1 64 0 32 32 0 1 1-64 0ZM384 256m-32 0a32 32 0 1 1 64 0 32 32 0 1 1-64 0ZM849.1 721.1c-62.5 62.5-163.8 62.5-226.3 0L490.7 588.9c-0.5-0.4-0.9-0.9-1.4-1.3-12.5-12.5-12.5-32.8 0-45.3s32.8-12.5 45.3 0v0.1L668 675.8c37.4 37.4 98.3 37.4 135.8 0 37.4-37.4 37.4-98.3 0-135.8L670.5 406.7l-0.1-0.1c-12.5-12.5-12.5-32.8 0-45.3s32.8-12.5 45.3 0l133.4 133.4c62.5 62.6 62.5 163.9 0 226.4z"  horiz-adv-x="1024" />

    
    <glyph glyph-name="edit" unicode="&#59039;" d="M864 64.2H160c-17.7 0-32-14.3-32-32s14.3-32 32-32h704c17.7 0 32 14.3 32 32s-14.3 32-32 32zM896 587L715 768 262.4 315.4v-181l181.1-0.1L896 587z m-90.5 0l-90.6-90.6-90.5 90.5 90.6 90.6 90.5-90.5zM326.4 198.5V289l252.7 252.7 90.5-90.5L417 198.4l-90.6 0.1z"  horiz-adv-x="1024" />

    
    <glyph glyph-name="help" unicode="&#59048;" d="M512 767.7c-212.1 0-384-171.9-384-384s171.9-384 384-384 384 171.9 384 384-171.9 384-384 384Zm226.2-610.2c-29.4-29.4-63.6-52.5-101.7-68.6-39.4-16.7-81.3-25.1-124.5-25.1s-85.1 8.5-124.5 25.1c-38.1 16.1-72.3 39.2-101.7 68.6-29.4 29.4-52.5 63.6-68.6 101.7-16.7 39.4-25.1 81.3-25.1 124.5s8.5 85.1 25.1 124.5c16.1 38.1 39.2 72.3 68.6 101.7 29.4 29.4 63.6 52.5 101.7 68.6 39.4 16.7 81.3 25.1 124.5 25.1s85.1-8.5 124.5-25.1c38.1-16.1 72.3-39.2 101.7-68.6 29.4-29.4 52.5-63.6 68.6-101.7C823.5 468.9 832 427 832 383.79999999999995s-8.5-85.1-25.1-124.5c-16.2-38.2-39.2-72.4-68.7-101.8ZM512 192.10000000000002c-17.7 0-32-14.3-32-32s14.3-32 32-32 32 14.3 32 32-14.3 32-32 32ZM511.3 640.1c-40.7-0.1-78.9-16-107.6-44.7-28.7-28.8-44.5-67-44.5-107.6 0-16.9 13.7-30.5 30.6-30.5 16.9 0 30.6 13.7 30.6 30.5 0 50.2 40.9 91.1 91.1 91.2h0.2c26.1 0 51.2-10.7 68.9-29.4 15.6-16.4 23.5-37.2 22.4-58.6-0.9-18.4-1.9-35.8-56.6-90.5-34.2-34.2-65.3-68.4-69.4-110.7-1.6-16.8 10.6-31.8 27.4-33.4 1-0.1 2-0.2 3.1-0.2 15.5 0 28.9 11.8 30.4 27.6 2 20.1 21.2 43 51.8 73.6 60.3 60.3 72.3 91.2 74.5 130.5 2 38.4-11.8 75.4-39.1 104-29.5 30.6-70.9 48.3-113.8 48.2Z"  horiz-adv-x="1024" />

    
    <glyph glyph-name="key" unicode="&#59049;" d="M832.5 512.1H640.1V639.9c0 70.7-57.3 128.1-128.1 128.1-70.7 0-128.1-57.3-128.1-128.1v-127.8H191.6c-35.1 0-63.6-28.5-63.6-63.6v-384.9c0-35.1 28.5-63.6 63.6-63.6h640.8c35.1 0 63.6 28.5 63.6 63.6V448.5c0.1 35.1-28.4 63.6-63.5 63.6zM448 639.9c0 35.3 28.7 64.1 64.1 64.1 35.3 0 64.1-28.7 64.1-64.1v-127.8H448V639.9zM832.1 64h-640V448.1h640V64zM511.9 384c-17.7 0-32-14.3-32-32v-192c0-17.7 14.3-32 32-32s32 14.3 32 32V352c0 17.7-14.3 32-32 32z"  horiz-adv-x="1024" />

    
    <glyph glyph-name="list" unicode="&#59052;" d="M160 703.9h704c17.7 0 32 14.3 32 32s-14.3 32-32 32H160c-17.7 0-32-14.3-32-32s14.3-32 32-32zM160 352h544c17.7 0 32 14.3 32 32s-14.3 32-32 32H160c-17.7 0-32-14.3-32-32s14.3-32 32-32zM864 64.2H160c-17.7 0-32-14.3-32-32s14.3-32 32-32h704c17.7 0 32 14.3 32 32s-14.3 32-32 32z"  horiz-adv-x="1024" />

    
    <glyph glyph-name="menu-left" unicode="&#59053;" d="M374.6 598.8c-12.5 12.5-32.8 12.5-45.3 0L137.4 406.9c-6-6-9.4-14.1-9.4-22.6s3.4-16.6 9.4-22.6l191.9-191.9c6.2-6.2 14.4-9.4 22.6-9.4s16.4 3.1 22.6 9.4c12.5 12.5 12.5 32.8 0 45.3L205.3 384.3l169.3 169.3c12.5 12.5 12.5 32.7 0 45.2zM864 64.29999999999995H160c-17.7 0-32-14.3-32-32s14.3-32 32-32h704c17.7 0 32 14.3 32 32s-14.3 32-32 32zM864 416.1H416c-17.7 0-32-14.3-32-32s14.3-32 32-32h448c17.7 0 32 14.3 32 32s-14.3 32-32 32zM160 704h704c17.7 0 32 14.3 32 32s-14.3 32-32 32H160c-17.7 0-32-14.3-32-32s14.3-32 32-32z"  horiz-adv-x="1024" />

    
    <glyph glyph-name="home" unicode="&#59058;" d="M886.6 438.6l-96 96-200.7 200.8c-42.9 42.9-112.8 42.9-155.7 0L137.4 438.6c-12.5-12.5-12.5-32.8 0-45.3s32.8-12.5 45.3 0l41.4 41.4V95c0-52.5 42.7-95.2 95.2-95.2h385.6c52.5 0 95.2 42.7 95.2 95.2V434.7l41.4-41.4c6.2-6.2 14.4-9.4 22.6-9.4s16.4 3.1 22.6 9.4c12.4 12.6 12.4 32.8-0.1 45.3zM736 95.1c0-17.2-14-31.2-31.2-31.2H544V352c0 17.7-14.3 32-32 32s-32-14.3-32-32v-288.1H319.2c-17.2 0-31.2 14-31.2 31.2V498.7l191.4 191.4c18 18 47.3 18 65.2 0L736 498.7v-403.6z"  horiz-adv-x="1024" />

    
    <glyph glyph-name="menu-right" unicode="&#59059;" d="M649.2 169.39999999999998c6.2-6.2 14.4-9.4 22.6-9.4s16.4 3.1 22.6 9.4l191.9 191.9c12.5 12.5 12.5 32.8 0 45.3l-191.9 192c-12.5 12.5-32.8 12.5-45.3 0s-12.5-32.8 0-45.3L818.5 384 649.2 214.70000000000005c-12.5-12.5-12.5-32.8 0-45.3zM159.7 704h704c17.7 0 32 14.3 32 32s-14.3 32-32 32h-704c-17.7 0-32-14.3-32-32s14.3-32 32-32zM159.7 352.1h448c17.7 0 32 14.3 32 32s-14.3 32-32 32h-448c-17.7 0-32-14.3-32-32s14.3-32 32-32zM863.7 64.29999999999995h-704c-17.7 0-32-14.3-32-32s14.3-32 32-32h704c17.7 0 32 14.3 32 32s-14.3 32-32 32z"  horiz-adv-x="1024" />

    
    <glyph glyph-name="monitor1" unicode="&#59062;" d="M416.1 448m-64 0a64 64 0 1 1 128 0 64 64 0 1 1-128 0ZM864.1 384c-17.7 0-32-14.3-32-32v-128h-160V344.4l88.1 88.1c24.8 24.8 24.8 65.1 0 89.9L533.3 749.2c-24.8 24.8-65.1 24.8-89.9 0L171.2 477.1c-24.8-24.8-24.8-65.1 0-89.9l20.8-20.8-45.4-45.4c-24.8-24.8-24.8-65.1 0-89.9l91-91c24.8-24.8 65.1-24.8 89.9 0l45.4 45.4 25.1-25.1c24.8-24.8 65.1-24.8 89.9 0L608 280.5V192c0-17.7 14.3-32 32-32h192v-128c0-17.7 14.3-32 32-32s32 14.3 32 32V352c0.1 17.7-14.2 32-31.9 32z m-421-178.2l-24.8 24.8-38.8 38.8c-1.2 1.4-2.5 2.8-3.8 4.2l-0.3 0.3-0.2-0.2-2.2 2.2-45.3-45.3-45.1-45.1-90.4 90.5 45.1 45.1 45.3 45.3-45.3 45.3-20.5 20.5 271.6 271.6 226.3-226.3-271.6-271.7z"  horiz-adv-x="1024" />

    
    <glyph glyph-name="notcertified" unicode="&#59069;" d="M480 544v-256c0-17.7 14.3-32 32-32s32 14.3 32 32V544c0 17.7-14.3 32-32 32s-32-14.3-32-32zM543.8 163.1c-0.1 0.5-0.1 1-0.2 1.6l-0.3 1.5-0.3 1.5c-0.1 0.5-0.3 1-0.4 1.5-0.1 0.5-0.3 1-0.5 1.5l-0.6 1.5c-0.2 0.5-0.4 1-0.6 1.4-0.2 0.5-0.5 0.9-0.7 1.4-0.3 0.5-0.5 0.9-0.8 1.4-0.3 0.4-0.6 0.9-0.8 1.3-0.3 0.4-0.6 0.9-0.9 1.3-0.3 0.4-0.6 0.8-1 1.2-0.3 0.4-0.7 0.8-1 1.2-0.4 0.4-0.7 0.8-1.1 1.1-0.4 0.4-0.8 0.7-1.1 1.1-0.4 0.4-0.8 0.7-1.2 1-0.4 0.3-0.8 0.7-1.2 1-0.4 0.3-0.8 0.6-1.3 0.9-0.4 0.3-0.9 0.6-1.3 0.8-0.4 0.3-0.9 0.5-1.4 0.8-0.5 0.2-0.9 0.5-1.4 0.7s-1 0.4-1.4 0.6-1 0.4-1.5 0.6c-0.5 0.2-1 0.3-1.5 0.5-0.5 0.1-1 0.3-1.5 0.4-0.5 0.1-1 0.3-1.5 0.3-0.5 0.1-1 0.2-1.6 0.3-0.5 0.1-1 0.1-1.6 0.2-0.5 0.1-1.1 0.1-1.6 0.1-1 0.1-2.1 0.1-3.1 0-0.5 0-1.1-0.1-1.6-0.1s-1.1-0.1-1.6-0.2l-1.5-0.3-1.5-0.3c-0.5-0.1-1-0.3-1.5-0.4-0.5-0.2-1-0.3-1.5-0.5l-1.5-0.6c-0.5-0.2-1-0.4-1.4-0.6s-0.9-0.5-1.4-0.7c-0.5-0.3-0.9-0.5-1.4-0.8-0.4-0.3-0.9-0.5-1.3-0.8-0.4-0.3-0.9-0.6-1.3-0.9-0.4-0.3-0.8-0.6-1.3-1-0.4-0.3-0.8-0.7-1.2-1-0.4-0.3-0.8-0.7-1.1-1.1-0.4-0.4-0.7-0.8-1.1-1.1-0.4-0.4-0.7-0.8-1-1.2-0.3-0.4-0.7-0.8-1-1.2-0.3-0.4-0.6-0.9-0.9-1.3-0.3-0.4-0.6-0.9-0.8-1.3-0.3-0.4-0.5-0.9-0.8-1.4-0.2-0.5-0.5-0.9-0.7-1.4-0.2-0.5-0.4-0.9-0.6-1.4l-0.6-1.5c-0.2-0.5-0.3-1-0.5-1.5s-0.3-1-0.4-1.5c-0.1-0.5-0.3-1-0.4-1.5l-0.3-1.5c-0.1-0.5-0.1-1-0.2-1.6-0.1-0.5-0.1-1-0.1-1.6v-3.2c0-0.5 0.1-1 0.1-1.6 0.1-0.5 0.1-1 0.2-1.6l0.3-1.5c0.1-0.5 0.2-1 0.4-1.5 0.1-0.5 0.3-1 0.4-1.5 0.1-0.5 0.3-1 0.5-1.5l0.6-1.5c0.2-0.5 0.4-1 0.6-1.4 0.2-0.5 0.5-0.9 0.7-1.4 0.3-0.5 0.5-0.9 0.8-1.4 0.3-0.5 0.6-0.9 0.8-1.3 0.3-0.4 0.6-0.9 0.9-1.3 0.3-0.4 0.6-0.8 1-1.2 0.3-0.4 0.7-0.8 1-1.2 0.3-0.4 0.7-0.8 1.1-1.1 0.4-0.4 0.8-0.7 1.1-1.1 0.4-0.3 0.8-0.7 1.2-1 0.4-0.3 0.8-0.6 1.3-1 0.4-0.3 0.8-0.6 1.3-0.9 0.4-0.3 0.9-0.6 1.3-0.8 0.4-0.3 0.9-0.5 1.4-0.8 0.5-0.2 0.9-0.5 1.4-0.7s1-0.4 1.4-0.6 1-0.4 1.5-0.6c0.5-0.2 1-0.3 1.5-0.5s1-0.3 1.5-0.4c0.5-0.1 1-0.3 1.5-0.4l1.5-0.3c0.5-0.1 1-0.1 1.6-0.2 0.5 0 1.1-0.1 1.6-0.1h3.2c0.5 0 1.1 0.1 1.6 0.1 0.5 0.1 1.1 0.1 1.6 0.2s1 0.2 1.6 0.3c0.5 0.1 1 0.2 1.5 0.4 0.5 0.1 1 0.3 1.5 0.4 0.5 0.1 1 0.3 1.5 0.5l1.5 0.6c0.5 0.2 1 0.4 1.4 0.6s0.9 0.5 1.4 0.7c0.5 0.3 0.9 0.5 1.4 0.8 0.4 0.3 0.9 0.6 1.3 0.8 0.4 0.3 0.9 0.6 1.3 0.9 0.4 0.3 0.8 0.6 1.2 1 0.4 0.3 0.8 0.7 1.2 1 0.4 0.3 0.8 0.7 1.1 1.1 0.4 0.4 0.7 0.8 1.1 1.1 0.3 0.4 0.7 0.8 1 1.2 0.3 0.4 0.6 0.8 1 1.2s0.6 0.8 0.9 1.3c0.3 0.4 0.6 0.9 0.8 1.3 0.3 0.5 0.5 0.9 0.8 1.4 0.2 0.5 0.5 0.9 0.7 1.4 0.2 0.5 0.4 1 0.6 1.4l0.6 1.5c0.2 0.5 0.3 1 0.5 1.5s0.3 1 0.4 1.5l0.3 1.5 0.3 1.5c0.1 0.5 0.1 1 0.2 1.6 0.1 0.5 0.1 1 0.1 1.6v1.6 1.6c-0.1 0.6-0.1 1.1-0.2 1.6zM801.7 601.8c-123.1 36.1-216.4 112.5-260.9 154.7-8.1 7.7-18.4 11.5-28.8 11.5s-20.7-3.8-28.8-11.5c-44.5-42.2-137.8-118.6-260.9-154.7-17.9-5.2-30.3-21.6-30.3-40.2v-237c0-3.2 0.4-6.3 1.1-9.4C202.4 275 274.7 0 512 0c237.3 0 309.6 275 318.9 315.1 0.7 3.1 1.1 6.2 1.1 9.4v237c0 18.7-12.4 35.1-30.3 40.3zM768 327.1c-4.4-18.4-22.9-86.7-64.4-149.3-23-34.7-49.3-61.9-78.1-80.7-34-22.3-71.2-33.1-113.6-33.1s-79.6 10.8-113.6 33.1c-28.8 18.9-55 46-78.1 80.7-41.5 62.6-59.9 130.9-64.4 149.3V545.2C371.5 582.6 461.1 650.4 512 696c50.9-45.6 140.5-113.5 256-150.8v-218.1z"  horiz-adv-x="1024" />

    
    <glyph glyph-name="reload" unicode="&#59071;" d="M843.1 578.9c-33.6 57-81.7 104.7-139 137.9-15.3 8.8-34.9 3.6-43.7-11.7-8.8-15.3-3.6-34.9 11.7-43.7 98.7-57.1 160-163.3 160-277.2 0-176.4-143.5-320-320-320s-320 143.5-320 320c0 113.9 61.3 220.1 160 277.2 15.3 8.8 20.5 28.4 11.7 43.7-8.8 15.3-28.4 20.5-43.7 11.7-57.3-33.1-105.4-80.8-139-137.9-34.7-58.8-53-126.1-53-194.7 0-51.8 10.2-102.1 30.2-149.5 19.3-45.7 47-86.8 82.3-122s76.3-62.9 122-82.3c47.4-20 97.6-30.2 149.5-30.2s102.1 10.2 149.5 30.2c45.7 19.3 86.8 47 122 82.3 35.3 35.3 62.9 76.3 82.3 122 20 47.4 30.2 97.6 30.2 149.5 0 68.5-18.3 135.9-53 194.7ZM512.1 384.5c17.7 0 32 14.3 32 32v320c0 17.7-14.3 32-32 32s-32-14.3-32-32v-320c0-17.7 14.3-32 32-32Z"  horiz-adv-x="1024" />

    
    <glyph glyph-name="refresh" unicode="&#59074;" d="M849.5 459.7c-14.1 43.6-36.1 83.4-65.4 118.3-30.4 36.2-67.3 65.5-109.6 87.2-49.6 25.3-104.9 38.7-160.3 38.7h-2.5v53c0 8.7-9.5 14.1-17 9.6l-105-84.8c-7.3-4.4-7.3-14.9 0-19.2l105-84.8c7.5-4.5 17 0.9 17 9.6v52.6H514.3c45.8 0 89.9-10.7 131.1-31.7C714 573.1 764.9 513.4 788.7 440s17.5-151.6-17.6-220.3C736 151 676.3 100.1 602.9 76.4c-73.4-23.7-151.6-17.5-220.3 17.6-68.7 35.1-119.6 94.8-143.3 168.2s-17.5 151.6 17.6 220.3c8 15.7 1.8 35-13.9 43.1-15.7 8-35 1.8-43.1-13.9-21.7-42.4-34.4-87.8-37.8-134.9-3.3-45.5 2.2-90.6 16.3-134.2s36.1-83.4 65.4-118.3c30.4-36.2 67.3-65.5 109.6-87.2 42.4-21.7 87.8-34.4 134.9-37.8 8.5-0.6 17.1-0.9 25.6-0.9 36.8 0 73.2 5.8 108.6 17.2 43.6 14.1 83.4 36.1 118.3 65.4 36.2 30.4 65.5 67.3 87.2 109.6 21.7 42.4 34.4 87.8 37.8 134.9 3.3 45.5-2.2 90.7-16.3 134.2z"  horiz-adv-x="1024" />

    
    <glyph glyph-name="search" unicode="&#59075;" d="M877.2 154.5L676 355.70000000000004c18 37.6 28 79.6 28 124 0 159-128.9 287.8-287.8 287.8S128.4 638.7 128.4 479.8 257.3 192 416.2 192c44.4 0 86.5 10.1 124 28l201.2-201.2c12.4-12.4 28.7-18.7 45-18.7s32.6 6.2 45 18.7l45.7 45.7c25 24.9 25 65.2 0.1 90Zm-461 101.4c-59.8 0-116 23.3-158.3 65.6-42.3 42.3-65.6 98.5-65.6 158.3s23.3 116 65.6 158.3c42.3 42.3 98.5 65.6 158.3 65.6 59.8 0 116-23.3 158.3-65.6 42.3-42.3 65.6-98.5 65.6-158.3s-23.3-116-65.6-158.3c-42.3-42.3-98.5-65.6-158.3-65.6Zm370.3-191.6L597.2 253.60000000000002l45.3 45.3 189.3-189.3-45.3-45.3Z"  horiz-adv-x="1024" />

    
    <glyph glyph-name="rocket" unicode="&#59076;" d="M829.5 333c-26.8 60.8-80.2 100.6-104.7 115.5-7.7 4.7-12.7 12.8-13.1 21.7-7 138.9-112.6 241.1-167.4 286.1-9.5 7.8-21 11.7-32.4 11.7-11.5 0-23-3.9-32.4-11.7-54.8-45-160.4-147.2-167.4-286.1-0.5-8.9-5.4-17-13.1-21.7-24.5-14.8-77.9-54.7-104.7-115.5-8.5-19.4 7.1-38.1 25.6-38.1 4.7 0 9.5 1.2 14.2 3.9 13.4 7.7 28.5 14.7 44.1 19.1 2.6 0.7 5.1 1.1 7.7 1.1 13.8 0 26-10.3 27.6-24.5C317.8 256 331.8 192 378.4 192h267c46.6 0 60.7 64 64.9 102.5 1.6 14.2 13.8 24.5 27.6 24.5 2.5 0 5.1-0.3 7.7-1.1 15.7-4.4 30.7-11.4 44.1-19.1 4.7-2.7 9.5-3.9 14.2-3.9 18.5 0 34.2 18.8 25.6 38.1Zm-182.8-31.6c-2.6-23.8-7.5-38.3-10.8-45.4H388c-3.4 7.1-8.2 21.6-10.8 45.4-4.1 37.7-30.7 67.8-65.6 77.9 9.3 7.3 16.8 12.2 20.5 14.4 25.9 15.7 42.3 43.1 43.9 73.2 2.4 48.3 20.7 97 54.2 144.7 21.4 30.5 49.5 60.9 81.7 88.3 32.1-27.5 60.3-57.8 81.7-88.3 33.5-47.7 51.8-96.4 54.2-144.6 1.5-30.1 17.9-57.5 43.9-73.2 3.8-2.3 11.3-7.1 20.5-14.4-34.9-10.1-61.4-40.3-65.5-78ZM511.9 544c-53 0-96-43-96-96s43-96 96-96 96 43 96 96-43 96-96 96Zm0-128c-17.6 0-32 14.3-32 32s14.3 32 32 32c17.6 0 32-14.3 32-32s-14.4-32-32-32ZM511.9 128c-17.7 0-32-14.3-32-32v-64c0-17.7 14.3-32 32-32s32 14.3 32 32v64c0 17.7-14.3 32-32 32ZM639.9 160c-17.7 0-32-14.3-32-32v-64c0-17.7 14.3-32 32-32s32 14.3 32 32v64c0 17.7-14.3 32-32 32ZM383.9 160c-17.7 0-32-14.3-32-32v-64c0-17.7 14.3-32 32-32s32 14.3 32 32v64c0 17.7-14.3 32-32 32Z"  horiz-adv-x="1024" />

    
    <glyph glyph-name="resetting" unicode="&#59079;" d="M634.3 105.5l-105 84.8c-7.5 4.5-17-0.9-17-9.6v-52.8h-0.3c-141.2 0-256 114.9-256 256 0 72.8 31.1 142.3 85.4 190.9 13.2 11.8 14.3 32 2.5 45.2-11.8 13.2-32 14.3-45.2 2.5-33.2-29.7-59.4-65.3-77.9-105.7C201.7 475 192 430.3 192 384c0-85.5 33.3-165.9 93.7-226.3C346.1 97.29999999999995 426.5 64 512 64h0.3v-52.8c0-8.7 9.5-14.1 17-9.6l105 84.8c7.2 4.3 7.2 14.8 0 19.1ZM576 384.3c0 35.4-28.7 64-64 64-35.4 0-64-28.7-64-64 0-35.4 28.7-64 64-64 35.4 0 64 28.7 64 64Zm-64.1 0c0 0.1 0 0.1 0 0 0.1 0.1 0.1 0.1 0 0 0.1 0.1 0.1 0.1 0 0 0.1 0.1 0.1 0.1 0 0 0.1 0.1 0.1 0.1 0 0 0.1 0.1 0.1 0.1 0 0 0.1 0 0.1 0 0 0 0.1 0 0.1 0 0 0 0.1 0 0.1 0 0 0 0.1 0 0.1 0 0 0 0.1 0 0.1 0 0 0ZM738.3 610.3C677.9 670.7 597.5 704 512 704h-0.3v52.8c0 8.7-9.5 14.1-17 9.6l-105-84.8c-7.3-4.4-7.3-14.9 0-19.2l105-84.8c7.5-4.5 17 0.9 17 9.6V640h0.3c141.2 0 256-114.9 256-256 0-72.7-31.1-142.3-85.3-190.8-13.2-11.8-14.3-32-2.5-45.2 6.3-7.1 15.1-10.7 23.9-10.7 7.6 0 15.2 2.7 21.3 8.2 33.2 29.7 59.4 65.3 77.9 105.7C822.3 293 832 337.6 832 384c0 85.5-33.3 165.8-93.7 226.3Z"  horiz-adv-x="1024" />

    
    <glyph glyph-name="sys" unicode="&#59084;" d="M255.7 384.3c0-17.7 14.3-32 32-32h448c17.7 0 32 14.3 32 32s-14.3 32-32 32h-448c-17.6 0-32-14.4-32-32ZM832 768H608c-17.7 0-32-14.3-32-32s14.3-32 32-32h224v-224c0-17.7 14.3-32 32-32s32 14.3 32 32V704c0 35.4-28.6 64-64 64ZM864 320c-17.7 0-32-14.3-32-32v-224H608c-17.7 0-32-14.3-32-32s14.3-32 32-32h224c35.3 0 64 28.6 64 64V288c0 17.7-14.3 32-32 32ZM416 64H192V288c0 17.7-14.3 32-32 32s-32-14.3-32-32v-224c0-35.3 28.6-64 64-64h224c17.7 0 32 14.3 32 32s-14.3 32-32 32ZM160 448c17.7 0 32 14.3 32 32V704h224c17.7 0 32 14.3 32 32s-14.3 32-32 32H192c-35.3 0-64-28.6-64-64v-224c0-17.7 14.3-32 32-32Z"  horiz-adv-x="1024" />

    
    <glyph glyph-name="upload" unicode="&#59088;" d="M512 767.3c-212.1 0-384-171.9-384-384s171.9-384 384-384 384 171.9 384 384-171.9 384-384 384zM738.2 157c-29.4-29.4-63.6-52.5-101.7-68.6-39.4-16.7-81.3-25.1-124.5-25.1s-85.1 8.5-124.5 25.1c-38.1 16.1-72.3 39.2-101.7 68.6s-52.5 63.6-68.6 101.7c-16.7 39.4-25.1 81.3-25.1 124.5s8.5 85.1 25.1 124.5c16.1 38.1 39.2 72.3 68.6 101.7s63.6 52.5 101.7 68.6c39.4 16.7 81.3 25.1 124.5 25.1s85.1-8.5 124.5-25.1c38.1-16.1 72.3-39.2 101.7-68.6 29.4-29.4 52.5-63.6 68.6-101.7 16.7-39.4 25.1-81.3 25.1-124.5s-8.5-85.1-25.1-124.5c-16.1-38-39.1-72.2-68.6-101.7zM534.6 598.6c-12.5 12.5-32.8 12.5-45.3 0l-96-96c-12.5-12.5-12.5-32.8 0-45.3s32.8-12.5 45.3 0l41.4 41.4V192c0-17.7 14.3-32 32-32s32 14.3 32 32V498.7l41.4-41.4c6.2-6.2 14.4-9.4 22.6-9.4s16.4 3.1 22.6 9.4c12.5 12.5 12.5 32.8 0 45.3l-96 96z"  horiz-adv-x="1024" />

    
    <glyph glyph-name="unvisible" unicode="&#59092;" d="M876.5 396.9l-86.9 37.3c42.6 37.9 76.6 77 99.5 106.1 10.9 13.9 8.6 34-5.3 44.9-13.9 10.9-34 8.6-44.9-5.3-49-62.2-179-206.7-326.7-206.7S234.3 517.8 185.3 580c-10.9 13.9-31.1 16.3-44.9 5.3-13.9-10.9-16.3-31.1-5.3-44.9 22.9-29 56.8-68.1 99.5-106.1L147.7 397c-16.2-7-23.8-25.8-16.8-42 5.2-12.1 17-19.4 29.4-19.4 4.2 0 8.5 0.8 12.6 2.6L291.3 389c20.5-14.6 41-27.1 61.4-37.7l-59.7-94c-9.5-14.9-5-34.7 9.9-44.2 5.3-3.4 11.2-5 17.1-5 10.6 0 21 5.3 27.1 14.9l65.3 102.9c22.7-7.5 45.3-12.5 67.7-14.9v-102.8c0-17.7 14.3-32 32-32s32 14.3 32 32V311c22.4 2.4 45 7.4 67.7 14.9L677 223c6.1-9.6 16.5-14.9 27.1-14.9 5.9 0 11.8 1.6 17.1 5 14.9 9.5 19.3 29.2 9.9 44.2l-59.6 93.9c20.4 10.6 40.9 23.2 61.4 37.7l118.4-50.8c4.1-1.8 8.4-2.6 12.6-2.6 12.4 0 24.2 7.3 29.4 19.4 6.9 16.2-0.6 35.1-16.8 42Z"  horiz-adv-x="1024" />

    
    <glyph glyph-name="visible" unicode="&#59093;" d="M512.1 511.7c-70.6 0-127.9-57.2-127.9-127.9S441.5 256 512.1 256 640 313.20000000000004 640 383.9s-57.2 127.8-127.9 127.8Zm0-191.7c-35.2 0-63.9 28.6-63.9 63.9s28.6 63.9 63.9 63.9 63.9-28.6 63.9-63.9-28.6-63.9-63.9-63.9ZM512 640c-212.1 0-384-256.1-384-256.1s171.9-256.1 384-256.1 384 256.1 384 256.1S724.1 640 512 640Zm228.2-337.2c-36.2-33.4-72.7-59.8-108.3-78.4-41.6-21.7-81.9-32.7-119.8-32.7-37.6 0-77.5 10.8-118.6 32.1-35.4 18.3-71.6 44.3-107.6 77.2-32.8 30-59.4 60.3-77.7 82.8 17.8 21.9 43.6 51.4 75.7 81 36.2 33.4 72.7 59.8 108.3 78.4C433.7 565 474.1 576 512 576c37.6 0 77.5-10.8 118.6-32.1 35.4-18.3 71.6-44.3 107.6-77.2 32.8-30 59.4-60.3 77.7-82.8-17.8-22-43.7-51.5-75.7-81.1Z"  horiz-adv-x="1024" />

    
    <glyph glyph-name="basicsettings" unicode="&#59091;" d="M512 448c35.3 0 64-28.7 64-64s-28.7-64-64-64-64 28.7-64 64 28.7 64 64 64m0 64c-70.7 0-128-57.3-128-128s57.3-128 128-128 128 57.3 128 128-57.3 128-128 128zM894 423.8c-1.9 18.1-5 35.8-9.3 53-1.4 5.5-7.1 8.9-12.5 7.2-8.9-2.7-18.1-4.1-27.4-4.1-9.8 0-19.5 1.5-28.8 4.4-6.5 2-12.8 4.7-18.8 8.1-14.8 8.4-27.2 20.7-35.8 35.5-12.5 21.7-15.6 46.2-10.5 68.9 4.1 18.4 13.6 35.6 27.8 49 4.1 3.9 4.1 10.5 0 14.4-12.9 12.5-26.7 24-41.2 34.6-21.4 15.6-44.5 28.9-68.9 39.9-16.3 7.3-33.2 13.5-50.6 18.5-5.5 1.6-11.2-1.7-12.5-7.2-4.5-19-14.6-35.8-28.5-48.6-17.1-15.8-40-25.4-65-25.4s-47.9 9.6-65 25.4c-13.9 12.8-24 29.6-28.5 48.6-1.3 5.5-7 8.8-12.5 7.2-17.4-5-34.3-11.2-50.6-18.5-24.4-10.9-47.5-24.3-68.9-39.9-14.5-10.6-28.3-22.1-41.2-34.6-4.1-4-4.2-10.5 0-14.4 14.2-13.4 23.7-30.6 27.8-49 5.1-22.7 2-47.2-10.5-68.9-8.6-14.9-21-27.2-35.8-35.5-6-3.4-12.3-6.1-18.8-8.1-9.3-2.9-19-4.4-28.7-4.4-9.3 0-18.6 1.4-27.5 4.1-5.5 1.7-11.2-1.7-12.5-7.2-4.3-17.2-7.4-34.9-9.3-53-1.3-13.1-2-26.4-2-39.8 0-13.4 0.7-26.7 2-39.8 1.9-18.1 5-35.8 9.3-53 1.4-5.5 7.1-8.9 12.5-7.2 8.9 2.7 18.2 4.1 27.5 4.1 9.8 0 19.5-1.5 28.7-4.4 6.5-2 12.8-4.7 18.8-8.1 14.8-8.4 27.2-20.7 35.8-35.5 12.1-21 15.8-45.4 10.5-68.9-0.3-1.3-0.6-2.6-1-3.9-4.7-17.4-13.9-32.8-26.7-44.9-4.2-4-4.3-10.6-0.1-14.6 12.9-12.5 26.7-24 41.2-34.6 21.4-15.6 44.5-28.9 68.9-39.9 16.3-7.3 33.2-13.5 50.6-18.5 5.5-1.6 11.2 1.7 12.5 7.2 4.5 19 14.6 35.8 28.5 48.6 17.1 15.8 39.9 25.4 65 25.4 25 0 47.9-9.6 65-25.4 13.9-12.8 24-29.6 28.5-48.6 1.3-5.5 7-8.8 12.5-7.2 17.4 5 34.3 11.2 50.6 18.5 24.4 10.9 47.5 24.3 68.9 39.9 14.5 10.6 28.3 22.1 41.2 34.6 4.2 4 4.1 10.6-0.1 14.6-12.8 12.1-22 27.5-26.7 44.9-0.3 1.3-0.7 2.6-1 3.9-5.3 23.6-1.6 47.9 10.5 68.9 8.6 14.9 21 27.2 35.8 35.5 6 3.4 12.3 6.1 18.8 8.1 9.3 2.9 19 4.4 28.8 4.4 9.3 0 18.5-1.4 27.4-4.1 5.5-1.7 11.2 1.7 12.5 7.2 4.3 17.2 7.4 34.9 9.3 53 1.3 13.1 2 26.4 2 39.8 0 13.4-0.7 26.7-2 39.8zM706 272c-25.6-44.4-27.6-96-9.7-140.2 1.8-4.3 0.3-9.3-3.6-12-13.4-9.2-27.6-17.4-42.3-24.5-4.2-2-9.3-0.8-12.2 2.9C609 135.8 563.3 160 512 160s-97-24.2-126.3-61.7c-2.9-3.7-7.9-4.9-12.2-2.9-14.8 7.1-28.9 15.3-42.3 24.5-3.9 2.6-5.3 7.6-3.6 12 17.9 44.1 16 95.7-9.7 140.2-25.6 44.4-69.4 71.9-116.5 78.5-4.6 0.6-8.2 4.4-8.6 9.1-0.6 8.1-0.9 16.2-0.9 24.4s0.3 16.3 0.9 24.4c0.4 4.7 3.9 8.4 8.6 9.1 47.1 6.6 90.9 34 116.5 78.5 25.6 44.4 27.6 96 9.7 140.2-1.8 4.3-0.3 9.3 3.6 12 13.4 9.2 27.6 17.4 42.3 24.5 4.2 2 9.3 0.8 12.2-2.9C415 632.2 460.7 608 512 608s97 24.2 126.3 61.7c2.9 3.7 7.9 4.9 12.2 2.9 14.8-7.1 28.9-15.3 42.3-24.5 3.9-2.6 5.3-7.6 3.6-12-17.9-44.1-16-95.7 9.7-140.2 25.6-44.4 69.4-71.9 116.5-78.5 4.6-0.6 8.2-4.4 8.6-9.1 0.6-8.1 0.9-16.2 0.9-24.4s-0.3-16.3-0.9-24.4c-0.4-4.7-3.9-8.4-8.6-9.1-47.2-6.5-91-34-116.6-78.4z"  horiz-adv-x="1024" />

    
    <glyph glyph-name="zusai" unicode="&#59139;" d="M512 768c-212.1 0-384-171.9-384-384s171.9-384 384-384 384 171.9 384 384-171.9 384-384 384Zm256-416H256v64h512v-64Z"  horiz-adv-x="1024" />

    
    <glyph glyph-name="bugongdian" unicode="&#59140;" d="M886.4 54.799999999999954L660.2 281l164.5 177.3c8.7 9.3 11 22.9 5.9 34.6-5.1 11.7-16.6 19.2-29.3 19.2H618.7l54 215.6c3.6 14.2-2.9 28.9-15.8 35.9-12.8 7-28.8 4.3-38.7-6.4l-209-225.1-226.7 226.7c-12.5 12.5-32.8 12.5-45.3 0s-12.5-32.8 0-45.3l228.4-228.4-162.8-175.3c-8.7-9.3-11-22.9-5.9-34.6 5.1-11.7 16.6-19.2 29.3-19.2h182.5l-54.1-216c-3.5-14.2 3-28.9 15.8-35.9 4.8-2.6 10-3.9 15.2-3.9 8.7 0 17.3 3.5 23.5 10.2L616.6 234l224.6-224.6c6.2-6.2 14.4-9.4 22.6-9.4s16.4 3.1 22.6 9.4c12.5 12.6 12.5 32.9 0 45.4Z"  horiz-adv-x="1024" />

    
    <glyph glyph-name="gongdian" unicode="&#59141;" d="M828.8 492.9c-5.1 11.7-16.6 19.2-29.3 19.2H617l54 215.6c3.6 14.2-2.9 28.9-15.8 35.9-12.8 7-28.8 4.3-38.7-6.4L201 309.79999999999995c-8.7-9.3-11-22.9-5.9-34.6 5.1-11.7 16.6-19.2 29.3-19.2H407l-54.1-216c-3.5-14.2 3-28.9 15.8-35.9 4.8-2.6 10-3.9 15.2-3.9 8.7 0 17.3 3.5 23.5 10.2l415.5 447.8c8.7 9.4 11 23 5.9 34.7Z"  horiz-adv-x="1024" />

    
    <glyph glyph-name="shanglian" unicode="&#59142;" d="M788.8 505L535.7 758.2c-6.5 6.5-15.1 9.8-23.6 9.8s-17.1-3.3-23.6-9.8L235.4 505c-21-21-6.1-57 23.6-57h125.2v-384.2c0-35.3 28.6-63.8 63.8-63.8h128.2c35.3 0 63.8 28.6 63.8 63.8V448.1h125.2c29.8 0 44.6 35.9 23.6 56.9Z"  horiz-adv-x="1024" />

    
    <glyph glyph-name="guangkou" unicode="&#59054;" d="M895.89 42.66999999999996L128 42.66999999999996l0 640L344.51 682.67l0-98.45L679.33000001 584.22l-1e-8 98.45L896 682.67l0-640z"  horiz-adv-x="1024" />

    
    <glyph glyph-name="upport" unicode="&#59072;" d="M128 85.33000000000004V548.12h177.24V666.28h39.45v59.05h334.62v-59.05h39.39v-118.16H896v-462.79z"  horiz-adv-x="1024" />

    
    <glyph glyph-name="downport" unicode="&#59409;" d="M896 682.67L896 219.88l-177.24 0L718.76 101.72000000000003l-39.45 0 0-59.05-334.62 0 0 59.05-39.39 0 0 118.16L128 219.88l0 462.79z"  horiz-adv-x="1024" />

    
    <glyph glyph-name="r" unicode="&#58968;" d="M810.7 475.8c0 13.7-2.4 25.9-6.9 36.8-17.7 43.4-68.2 64.9-133.6 64.9H275l-26.5-61.6h346s63.6 1.3 81.4-30.1c2.9-5.1 4.7-10.9 4.7-17.9 0-70.1-233.7-131.3-233.7-131.3l147.2-146.2H761c-71.2 81.9-162.8 146.2-162.8 146.2 115.8 4 212.5 57.2 212.5 139.2zM317.1 476.4L213.6 190.89999999999998H349l103.2 285.5z"  horiz-adv-x="1024" />

    
    <glyph glyph-name="ruijie" unicode="&#58976;" d="M848.7 490.2c20.9 1.2 33 1.3 33 1.3-4.3 0.9-9.1 1.7-14.2 2.4-19.3 2.8-44 4.6-72.1 4.9-3.3 0.1-6.7 0.1-10.1 0.1-66.9 0-150.3-7.8-223.5-28.4l-6.7-33.3c4.6 1.4 9.1 2.8 13.6 4.2 116.2 35.1 226.8 45.7 280 48.8zM371.4 450.2c0 5.6-1 10.6-2.8 15-7.2 17.7-27.8 26.5-54.5 26.5H153l-10.8-25.1h141s25.9 0.5 33.2-12.3c1.2-2.1 1.9-4.5 1.9-7.3 0-28.6-95.3-53.5-95.3-53.5l60-59.6h68c-29 33.4-66.4 59.6-66.4 59.6 47.4 1.6 86.8 23.3 86.8 56.7zM170.2 450.4L128 334h55.2l42.1 116.4zM740.4 451.9c-13.6-1.4-27.4-2.9-41.1-4.7l-26.7-113.5H715l28.1 118.5-2.7-0.3zM599.2 331.5c-3.8-11.9-8.2-20.3-13.2-25.4-6-6-15.9-10.7-29.7-13.9-0.2-0.1-0.2-0.2-0.4-0.3l-5.3-22.7c13.4 1.1 48.8 5.9 70.4 27 11.6 11.3 19.2 28 23.1 41.8l26.2 105.4c-15.1-2.2-30-4.5-44.4-6.8-9.7-43.6-18.6-78.7-26.7-105.1zM596.5 431.6c-15.8-2.7-30.6-5.5-43.9-8l-21.6-90h42.5l23 98zM487.4 455.8s-8.6-47.8-16.5-74.7c-1-3.5-2.1-6.7-3.5-9.6-0.1-0.1-0.2-0.2-0.2-0.3-0.5-0.9-0.9-1.8-1.5-2.6-4.1-6.1-11-10.2-25.4-11.5-18.3-1.6-27.2 3.1-24.4 15.7l20.4 83h-45.2l-21.9-94.4c-2-11.8 3.6-20 15-24.2 5.9-2.2 13.4-3.4 22.2-3.4 69.7 0 93.9 1.5 103.3 30.3 5 15.1 21.7 91.8 21.7 91.8h-44zM889.8 440.2c-7.9 10-23.2 16.8-44.5 16.8-2.3 0-4.6-0.1-7-0.2-27.6-1.9-46-8.3-64.3-21.7-17.8-13.1-26.8-28.2-30.1-42.8-0.7-3-1.1-5.9-1.3-8.8-1.1-14.7 7.1-39.6 43.8-47.6 34.3-7.4 75.3 7.4 85.7 11.8l7.6 29.4c-9.9-5.2-84.1-42.5-90-0.5 0.6 0.1 58.8 10.2 68.7 12.2 11.1 2.2 35.3 10.1 37.5 31.2 0.7 7.4-1.4 14.3-6.1 20.2z m-62.5-46c-36.5-7.3-37.5-7.2-37.5-7.2s6.8 32.8 47.4 44.3c25.7 7.2 26.5-29.9-9.9-37.1z"  horiz-adv-x="1024" />

    
    <glyph glyph-name="eweb" unicode="&#58989;" d="M390.5 514c-32.6 27-123.8 16.7-181-52.4s-38.9-129.4-22.3-149.2c16.7-19.8 64.4-52.8 135.9-14.9 55.5 29.3 69.7 70.1 64.9 72.5-6.8 3.5-11.7-4.9-42.7-21.7-39.8-21.7-92-31.6-91.5 6.9 0 0 76.2 15.9 118.3 50 42.2 34.1 50.9 81.7 18.4 108.8z m-66.7-95.1c-33.9-23.2-69.7-27.4-69.7-27.4s3.6 26.2 26.2 58.3c22.6 32.2 57.2 47.6 73.2 35.1 16.1-12.4 4.2-42.8-29.7-66zM550.9 318.9c-1-1.9-1.7-5.2-2.1-10-0.5-1-0.7-1.7-0.7-2.1-0.5 2.4-1.4 6.4-2.8 12.1l-33.4 122.3h-12.8l-35.6-122.3c0-0.5-0.2-1.4-0.7-2.8-1-4.7-1.4-7.8-1.4-9.2h-0.7c0 0.5-0.2 1.2-0.7 2.1-0.5 4.7-1.2 8.1-2.1 10L425 441.3h-11.4l41.3-141.5h10.7l37.7 124.5c0 0.5 0.2 1.4 0.7 2.8 0.5 2.8 0.9 4.7 1.4 5.7 0.5-0.5 0.9-2.1 1.4-5 0.5-2.4 0.7-4 0.7-5l35.6-123h10.7l43.4 141.5H585l-34.1-122.4zM626.3 368h86v9.2h-86V432h91v9.3H615.6v-141.6h105.3v7.8h-94.6zM816.9 373.70000000000005c19.9 3.3 30.1 14.5 30.6 33.4-1.9 21.3-16.8 32.7-44.8 34.1h-55.5v-141.5h59c31.3 0.5 47.2 13.3 47.7 38.4-1 19.5-13.3 31.3-37 35.6zM757.1 432h42c24.2-0.5 36.5-8.8 37-24.9-0.5-19.4-12.8-29.2-37-29.2h-42V432z m47-123.7h-46.9v60.5h44.1c26.1-0.5 39.8-10 41.3-28.5-0.1-21.4-12.9-32-38.5-32z"  horiz-adv-x="1024" />

    
    <glyph glyph-name="project" unicode="&#58988;" d="M832.2 256h-32.5V383.6c0 17.7-14.3 32-32 32H543.8v96.8h32.8c35 0 63.4 28.4 63.4 63.4V704.2c0 35-28.4 63.4-63.4 63.4H447.5c-35 0-63.4-28.4-63.4-63.4v-128.5c0-35 28.4-63.4 63.4-63.4h32.3v-96.8H255.9c-17.7 0-32-14.3-32-32V256h-32.5c-35 0-63.4-28.4-63.4-63.4v-128.5c0-35 28.4-63.4 63.4-63.4h129.1c35 0 63.4 28.4 63.4 63.4V192.60000000000002c0 35-28.4 63.4-63.4 63.4H288v95.6h447.7V256h-32.5c-35 0-63.4-28.4-63.4-63.4v-128.5c0-35 28.4-63.4 63.4-63.4h129.1c35 0 63.4 28.4 63.4 63.4V192.60000000000002c-0.1 35-28.5 63.4-63.5 63.4ZM448.1 703.6H576v-127.3H448.1V703.6ZM319.9 192v-127.3H192V192h127.9Zm511.7-127.3H703.7V192H831.5l0.1-127.3Z"  horiz-adv-x="1024" />

    
    <glyph glyph-name="ap" unicode="&#58996;" d="M278.8 441.9c93.4 93.4 245.4 93.4 338.9 0 6.2-6.3 14.4-9.4 22.6-9.4 8.2 0 16.4 3.1 22.6 9.4 12.5 12.5 12.5 32.8 0 45.3-57.3 57.3-133.6 88.9-214.7 88.9s-157.3-31.6-214.7-88.9c-12.5-12.5-12.5-32.8 0-45.3s32.8-12.5 45.3 0ZM308.2 390.1c-12.5-12.5-12.5-32.8 0-45.3s32.8-12.5 45.3 0c52.2 52.2 137.2 52.2 189.5 0 6.2-6.2 14.4-9.4 22.6-9.4s16.4 3.1 22.6 9.4c12.5 12.5 12.5 32.8 0 45.3-77.2 77.2-202.8 77.2-280 0ZM704.7 767.2h-513c-35 0-63.4-28.4-63.4-63.4v-640.4c0-35 28.4-63.4 63.4-63.4h513c35 0 63.4 28.4 63.4 63.4V703.8c0 35-28.4 63.4-63.4 63.4Zm-0.6-703.2H192.3V703.2h511.8V64ZM864.1 704c-17.7 0-32-14.3-32-32v-576c0-17.7 14.3-32 32-32s32 14.3 32 32V672c0 17.7-14.3 32-32 32ZM448.2 319.9c-35.3 0-63.9-28.6-63.9-63.9s28.6-63.9 63.9-63.9 63.9 28.6 63.9 63.9-28.6 63.9-63.9 63.9Z"  horiz-adv-x="1024" />

    
    <glyph glyph-name="user" unicode="&#58997;" d="M512 768c-212.1 0-384-171.9-384-384s171.9-384 384-384 384 171.9 384 384-171.9 384-384 384Zm0-704c-43.2 0-85.1 8.5-124.5 25.1-24.1 10.2-46.7 23.2-67.4 38.8 0 51.3 20 99.5 56.2 135.7 36.3 36.3 84.5 56.2 135.7 56.2s99.5-20 135.7-56.2C684 227.39999999999998 704 179.20000000000004 704 128c-20.8-15.6-43.3-28.6-67.4-38.8C597.1 72.39999999999998 555.2 64 512 64Zm0 320c-52.9 0-96 43.1-96 96s43.1 96 96 96 96-43.1 96-96-43.1-96-96-96Zm249.8-200c-17.6 78.8-71.5 143.8-143.2 176.7C651.4 390 672 432.6 672 480c0 88.4-71.6 160-160 160s-160-71.6-160-160c0-47.4 20.6-90 53.4-119.3-71.7-32.9-125.6-98-143.2-176.7-18.4 23-33.6 48.2-45.1 75.5C200.5 298.9 192 340.79999999999995 192 384s8.5 85.1 25.1 124.5c16.1 38.1 39.2 72.3 68.6 101.7 29.4 29.4 63.6 52.5 101.7 68.6C426.9 695.5 468.8 704 512 704s85.1-8.5 124.5-25.1c38.1-16.1 72.3-39.2 101.7-68.6 29.4-29.4 52.5-63.6 68.6-101.7C823.6 469.1 832 427.2 832 384s-8.5-85.1-25.1-124.5c-11.5-27.3-26.7-52.6-45.1-75.5Z"  horiz-adv-x="1024" />

    
    <glyph glyph-name="switch" unicode="&#58998;" d="M689.7 512c-15.8-44.2-49.7-98-194.2-98v43.2L384 389l111.5-69v38.8C694 358.79999999999995 729.8 458 689.7 512ZM528.7 546v-43.2L640.3 571l-111.5 69v-38.8c-198.4 0-234.3-99.1-194.2-153.2 15.8 44.2 49.7 98 194.1 98ZM889.5 219.70000000000004L780.3 714.2c-6.9 31.4-34.8 53.8-67 53.8H311.4c-32.1 0-60-22.3-67-53.7L134.6 219.79999999999995c-4-8.3-6.2-17.5-6.2-27.3v-129.1c0-35 28.4-63.4 63.4-63.4h640.4c35 0 63.4 28.4 63.4 63.4V192.5c0 9.7-2.2 18.9-6.1 27.2ZM831.6 64H192.4V191.89999999999998h639.2V64ZM306.9 700.4c0.5 2.1 2.3 3.6 4.5 3.6h401.9c2.1 0 4-1.5 4.5-3.6L815.9 256H208.2l98.7 444.4ZM320.4 128m-32 0a32 32 0 1 1 64 0 32 32 0 1 1-64 0ZM448.4 128m-32 0a32 32 0 1 1 64 0 32 32 0 1 1-64 0ZM576.4 128m-32 0a32 32 0 1 1 64 0 32 32 0 1 1-64 0Z"  horiz-adv-x="1024" />

    
    <glyph glyph-name="gateway" unicode="&#58999;" d="M889.5 219.70000000000004L780.3 714.2c-6.9 31.4-34.8 53.8-67 53.8H311.4c-32.1 0-60-22.3-67-53.7L134.6 219.79999999999995c-4-8.3-6.2-17.5-6.2-27.3v-129.1c0-35 28.4-63.4 63.4-63.4h640.4c35 0 63.4 28.4 63.4 63.4V192.5c0 9.7-2.2 18.9-6.1 27.2ZM831.6 64H192.4V191.89999999999998h639.2V64ZM306.9 700.4c0.5 2.1 2.3 3.6 4.5 3.6h401.9c2.1 0 4-1.5 4.5-3.6L815.9 256H208.2l98.7 444.4ZM320.4 128m-32 0a32 32 0 1 1 64 0 32 32 0 1 1-64 0ZM448.4 128m-32 0a32 32 0 1 1 64 0 32 32 0 1 1-64 0ZM576.4 128m-32 0a32 32 0 1 1 64 0 32 32 0 1 1-64 0ZM460.7 637.4c-11.9 5-25.7 2.2-34.9-6.9l-96.1-95.8c-12.5-12.5-12.5-32.7-0.1-45.3 12.5-12.5 32.7-12.5 45.3-0.1l41.5 41.4v-178.5c0-17.7 14.3-32 32-32s32 14.3 32 32V607.8c0 12.9-7.8 24.6-19.7 29.6ZM649.5 470.7L608 429.3V607.8c0 17.7-14.3 32-32 32s-32-14.3-32-32v-255.6c0-12.9 7.8-24.6 19.7-29.6 4-1.6 8.1-2.4 12.3-2.4 8.3 0 16.5 3.2 22.6 9.3l96.1 95.8c12.5 12.5 12.5 32.7 0.1 45.3-12.5 12.5-32.8 12.5-45.3 0.1Z"  horiz-adv-x="1024" />

    
    <glyph glyph-name="wifi" unicode="&#59000;" d="M886.5 524.9C836 575.5 777 614.6 711.3 641.3 647.8 667 580.8 680 512 680c-68.8 0-135.8-13-199.3-38.8C247 614.6 188 575.4 137.5 524.9c-12.5-12.5-12.5-32.8 0-45.3s32.8-12.5 45.3 0c181.5 181.5 476.9 181.5 658.5 0 6.2-6.2 14.4-9.4 22.6-9.4s16.4 3.1 22.6 9.4c12.5 12.6 12.5 32.8 0 45.3ZM638.5 456.9c-40.3 16.3-82.8 24.6-126.5 24.6-43.6 0-86.2-8.3-126.5-24.6-41.7-16.9-79.1-41.8-111.2-73.8-12.5-12.5-12.5-32.8 0-45.3s32.8-12.5 45.3 0c106.1 106.1 278.7 106.1 384.8 0 6.2-6.2 14.4-9.4 22.6-9.4s16.4 3.1 22.6 9.4c12.5 12.5 12.5 32.8 0 45.3-31.9 32.1-69.3 56.9-111.1 73.8ZM496.198 88.34699999999998a99 99 0 1 1 31.7213 195.442 99 99 0 1 1-31.7213-195.442Z"  horiz-adv-x="1024" />

    
    <glyph glyph-name="systemset" unicode="&#59001;" d="M160 640h64c17.7 0 32 14.3 32 32s-14.3 32-32 32h-64c-17.7 0-32-14.3-32-32s14.3-32 32-32ZM672 640h192c17.7 0 32 14.3 32 32s-14.3 32-32 32H672c-17.7 0-32-14.3-32-32s14.3-32 32-32ZM382.4 576h131.2c34.5 0 62.4 27.9 62.4 62.4v67.2c0 34.5-27.9 62.4-62.4 62.4H382.4c-34.5 0-62.4-27.9-62.4-62.4v-67.2c0-34.5 27.9-62.4 62.4-62.4Zm1.6 128h128v-64H384v64ZM224 127.79999999999995h-64c-17.7 0-32-14.3-32-32s14.3-32 32-32h64c17.7 0 32 14.3 32 32s-14.3 32-32 32ZM864 127.79999999999995H672c-17.7 0-32-14.3-32-32s14.3-32 32-32h192c17.7 0 32 14.3 32 32s-14.3 32-32 32ZM513.6 191.79999999999995H382.4c-34.5 0-62.4-27.9-62.4-62.4v-67.2c0-34.5 27.9-62.4 62.4-62.4h131.2c34.5 0 62.4 27.9 62.4 62.4v67.2c0 34.5-27.9 62.4-62.4 62.4Zm-1.6-128H384v64h128v-64ZM864 415.9h-64c-17.7 0-32-14.3-32-32s14.3-32 32-32h64c17.7 0 32 14.3 32 32s-14.3 32-32 32ZM160 351.9h192c17.7 0 32 14.3 32 32s-14.3 32-32 32H160c-17.7 0-32-14.3-32-32s14.3-32 32-32ZM510.4 479.9c-34.5 0-62.4-27.9-62.4-62.4v-67.2c0-34.5 27.9-62.4 62.4-62.4h131.2c34.5 0 62.4 27.9 62.4 62.4v67.2c0 34.5-27.9 62.4-62.4 62.4H510.4Zm129.6-128H512v64h128v-64Z"  horiz-adv-x="1024" />

    
    <glyph glyph-name="cloud" unicode="&#58995;" d="M828.1 402.7c2.6 14.7 4 29.9 4 45.3 0 141.4-114.6 256-256 256-96.4 0-180.3-53.3-224-132-10.2 2.6-21 4-32 4-70.7 0-128-57.3-128-128 0-14.9 2.6-29.3 7.3-42.6-43.5-35.2-71.3-89-71.3-149.4-0.1-106 85.9-192 192-192h384.1c106.1 0 192.1 86 192.1 192.1-0.1 58.8-26.6 111.4-68.2 146.6z m-33.4-237.2c-24.2-24.2-56.3-37.5-90.5-37.5H320.1c-34.2 0-66.4 13.3-90.5 37.5-24.2 24.2-37.5 56.3-37.5 90.5 0 38.8 17.3 75.1 47.6 99.6 21.1 17 29.1 45.5 20.1 71.1-2.4 6.8-3.6 14-3.6 21.3 0 35.3 28.7 64 64 64 5.5 0 10.9-0.7 16.1-2 5.3-1.4 10.7-2 16-2 22.8 0 44.5 12.3 56 33 16.4 29.5 40.3 54.3 69.3 71.7 29.7 17.9 63.9 27.3 98.8 27.3 51.3 0 99.5-20 135.8-56.2 36.3-36.3 56.2-84.5 56.2-135.8 0-11.5-1-22.9-3-34.1-4-22.5 4.2-45.4 21.6-60.1 28.8-24.4 45.4-60.1 45.4-97.8-0.2-34.1-13.6-66.3-37.7-90.5z"  horiz-adv-x="1024" />

    
    <glyph glyph-name="diagnosis" unicode="&#59002;" d="M877.4 154.4L676.2 355.6c18 37.6 28 79.6 28 124 0 159-128.9 287.8-287.8 287.8S128.6 638.6 128.6 479.6s128.9-287.8 287.8-287.8c44.4 0 86.5 10.1 124 28l201.2-201.2c12.4-12.4 28.7-18.7 45-18.7s32.6 6.2 45 18.7l45.7 45.7c25 24.9 25 65.2 0.1 90.1z m-619.3 167c-42.3 42.3-65.6 98.5-65.6 158.3s23.3 116 65.6 158.3c42.3 42.3 98.5 65.6 158.3 65.6s116-23.3 158.3-65.6c42.3-42.3 65.6-98.5 65.6-158.3s-23.3-116-65.6-158.3c-42.3-42.3-98.5-65.6-158.3-65.6s-116 23.3-158.3 65.6z m528.6-257.3L597.3 253.4l45.3 45.3 189.3-189.3-45.2-45.3zM514.1 526.4l-49.3-49.5-73.6 73.4c-12.5 12.4-32.6 12.5-45.1 0.1l-72.5-71.9c-12.5-12.4-12.6-32.7-0.2-45.3 12.4-12.5 32.7-12.6 45.3-0.2l49.9 49.5 73.7-73.5c6-6 14.1-9.3 22.6-9.3h0.1c8.5 0 16.6 3.4 22.6 9.4l71.9 72.2c12.5 12.5 12.4 32.8-0.1 45.3-12.6 12.4-32.9 12.4-45.3-0.2z"  horiz-adv-x="1024" />

    
    <glyph glyph-name="collectorstation" unicode="&#59003;" d="M832.3 383.9H576L512 512l-64-128 127.9-0.1H191.7c-35.2 0-63.7-28.5-63.7-63.7v-256.6c0-35.2 28.5-63.7 63.7-63.7h640.7c35.2 0 63.7 28.5 63.7 63.7V320.20000000000005c-0.1 35.2-28.6 63.7-63.8 63.7zM832 64H192V319.9h640V64zM672 128c17.7 0 32 14.3 32 32v63.9c0 17.7-14.3 32-32 32s-32-14.3-32-32V160c0-17.7 14.3-32 32-32zM351.9 128c17.7 0 32 14.3 32 32v63.9c0 17.7-14.3 32-32 32s-32-14.3-32-32V160c0-17.7 14.4-32 32-32zM285.8 610.2c60.4 60.4 140.8 93.7 226.2 93.7 85.4 0 165.8-33.3 226.2-93.7 6.2-6.2 14.4-9.4 22.6-9.4s16.4 3.1 22.6 9.4c12.5 12.5 12.5 32.8 0 45.3-36.6 36.6-79.4 65-127 84.3-46 18.7-94.6 28.1-144.4 28.1-49.8 0-98.4-9.5-144.4-28.1-47.6-19.3-90.4-47.7-127-84.3-12.5-12.5-12.5-32.8 0-45.3 12.4-12.5 32.7-12.5 45.2 0zM343.7 552.3c-12.5-12.5-12.5-32.8 0-45.3s32.8-12.5 45.3 0c67.9 67.9 178.3 67.9 246.2 0 6.2-6.2 14.4-9.4 22.6-9.4s16.4 3.1 22.6 9.4c12.5 12.5 12.5 32.8 0 45.3-45 45-104.8 69.7-168.3 69.7-63.7 0-123.5-24.7-168.4-69.7z"  horiz-adv-x="1024" />

    
    <glyph glyph-name="doublewan" unicode="&#59004;" d="M767.8 511.7v128h-128v128h-256v-128h-128v-128h-128v-511.1h576.1c105.8 0.1 191.6 85.8 191.9 191.6V511.7h-128z m26.5-409.6c-24.2-24.2-56.3-37.5-90.5-37.5s-66.3 13.3-90.5 37.5c-24.2 24.2-37.5 56.3-37.5 90.5s13.3 66.3 37.5 90.5c24.2 24.2 56.3 37.5 90.5 37.5s66.3-13.3 90.5-37.5c24.2-24.2 37.5-56.3 37.5-90.5s-13.3-66.3-37.5-90.5z m37.5 233.6c-34 30.4-78.8 48.9-128 48.9-106 0-192-86-192-192 0-49.2 18.5-94 48.9-128H351.9V256.1c0 17.7-14.3 32-32 32s-32-14.3-32-32v-191.6h-96.1V447.7h128v128h128v128h128v-128h128v-128h128v-112zM696.3 152.20000000000005c3.8 4.3 11.1 10.3 22.1 18.1 11.4 8 19.7 14.9 24.8 20.6 5.2 5.7 9.1 11.9 11.8 18.4 2.7 6.5 4.1 13.8 4.1 21.9 0 14.5-4.7 25.9-14.1 34.2-9.4 8.3-22.2 12.4-38.4 12.4-17.7 0-33.6-4.6-47.8-13.7V234c12.7 11.2 26 16.8 40 16.8 15.9 0 23.9-7.3 23.9-21.9 0-6.8-2.1-13.2-6.3-19.2-4.2-6-11.5-13-22-20.8-11.5-8.1-19.9-15.2-25.3-21.2-5.4-6-9.7-12.6-12.8-19.5-3.1-7-4.7-14.7-4.7-23.1v-12h107.9v28.2h-68.8c0 2.9 1.8 6.6 5.6 10.9z"  horiz-adv-x="1024" />

    
    <glyph glyph-name="factoranalysis" unicode="&#59005;" d="M128 0h64V299.5l-64-61.1zM362.7 462.4V0h64V469.3l-27.8 27.8zM832 576.3V0h64V517.7l-61.2 61.2zM597.3 0h64V413.3l-64-61zM736 768l58.1-58.1-219.8-207.5-170.9 170.9-275.4-263V320l275.4 262.9 171-171 266.2 251.5L896 608V768z"  horiz-adv-x="1024" />

    
    <glyph glyph-name="loop" unicode="&#59006;" d="M832.2 767.9H191.8c-35.3 0-63.8-28.6-63.8-63.8v-544.3c0-35.3 28.6-63.8 63.8-63.8h115.1l-41.4-41.4c-12.5-12.5-12.5-32.8 0-45.3 6.2-6.2 14.4-9.4 22.6-9.4s16.4 3.1 22.6 9.4l95.9 95.9c12.5 12.5 12.5 32.8 0 45.3l-95.9 95.9c-12.5 12.5-32.8 12.5-45.3 0s-12.5-32.8 0-45.3l41.2-41.2H191.9v544H832v-544H717.4l41.2 41.2c12.5 12.5 12.5 32.8 0 45.3s-32.8 12.5-45.3 0l-95.9-95.9c-12.5-12.5-12.5-32.8 0-45.3l95.9-95.9c6.3-6.2 14.4-9.4 22.6-9.4 8.2 0 16.4 3.1 22.6 9.4 12.5 12.5 12.5 32.8 0 45.3L717.1 96h115c35.3 0 63.8 28.6 63.8 63.8V704.1c0.1 35.2-28.5 63.8-63.7 63.8z"  horiz-adv-x="1024" />

    
    <glyph glyph-name="loopprotect" unicode="&#59009;" d="M448 192h128l32 320H416zM448 128h128v-128H448zM832.1 767.9H192.3c-35.5 0-64.2-29.2-64.2-65.2v-552.2c0-36 28.7-65.2 64.2-65.2H320c17.7 0 32 14.3 32 32s-14.3 32-32 32H192.6c-0.2 0.2-0.4 0.5-0.4 1.2V702.7c0 0.7 0.2 1 0.4 1.2h639.3c0.2-0.2 0.4-0.5 0.4-1.2v-552.2c0-0.7-0.2-1-0.4-1.2H704c-17.7 0-32-14.3-32-32s14.3-32 32-32h128.1c35.5 0 64.2 29.2 64.2 65.2V702.7c0 36-28.8 65.2-64.2 65.2z"  horiz-adv-x="1024" />

    
    <glyph glyph-name="network" unicode="&#59011;" d="M512.3 768c-211.9 0-383.7-171.8-383.7-383.7s171.8-383.7 383.7-383.7S896 172.29999999999995 896 384.3 724.2 768 512.3 768z m0-703.5c-24.6 0-54.6 29.5-78.3 77-14 27.9-25.7 61.8-34 98.5h224.5c-8.3-36.7-20-70.6-33.9-98.5-23.7-47.5-53.8-77-78.3-77zM384.5 384.3c0 27.2 1.5 53.8 4.5 79.7h246.4c3-25.9 4.5-52.6 4.5-79.7 0-27.4-1.5-54.2-4.6-80.3H389.1c-3 26.1-4.6 52.9-4.6 80.3zM512.3 704c24.6 0 54.6-29.5 78.3-77 14-28 25.7-62.1 34.1-99H399.9c8.3 36.9 20.1 71 34.1 99 23.7 47.5 53.7 77 78.3 77z m309.6-400H699.8c2.8 25.9 4.2 52.7 4.2 80.3 0 27.3-1.4 54-4.1 79.7H822c6.6-25.9 10-52.5 10-79.7 0-27.4-3.4-54.3-10.1-80.3z m-83.6 306.3c24.3-24.3 44.3-52 59.6-82.3H690.1c-12 59.4-31.2 111.5-55.5 151.8l2.1-0.9c38.1-16.1 72.3-39.2 101.6-68.6z m-452.1 0c29.4 29.4 63.6 52.4 101.7 68.6l2.1 0.9c-24.3-40.3-43.5-92.3-55.5-151.8H226.6c15.3 30.4 35.2 58 59.6 82.3zM202.5 464h122.2c-2.7-25.7-4.1-52.4-4.1-79.7 0-27.5 1.5-54.4 4.2-80.3H202.6c-6.7 26-10.1 52.9-10.1 80.3 0 27.2 3.4 53.8 10 79.7z m83.7-305.8c-24.2 24.2-44.1 51.7-59.4 81.8h107.7c12-59.2 31.2-111.1 55.4-151.3l-2.1 0.9c-38.1 16.1-72.3 39.2-101.6 68.6z m452.1 0c-29.4-29.4-63.6-52.4-101.7-68.6l-2.1-0.9c24.2 40.2 43.4 92 55.4 151.3h107.7c-15.2-30.2-35.1-57.7-59.3-81.8z"  horiz-adv-x="1024" />

    
    <glyph glyph-name="monitor" unicode="&#59012;" d="M832.2 768H191.8c-35.2 0-63.8-28.5-63.8-63.8v-448.5c0-35.2 28.5-63.8 63.8-63.8H480V64H288c-17.7 0-32-14.3-32-32s14.3-32 32-32h448c17.7 0 32 14.3 32 32s-14.3 32-32 32H544V192h288.2c35.2 0 63.8 28.5 63.8 63.8V704.2c0 35.3-28.5 63.8-63.8 63.8z m-0.2-512H192V704h640v-448zM288 416h64c13.1 0 24.9 8 29.7 20.1l27.2 68.1 40-160c3.2-13 14.2-22.6 27.6-24 1.2-0.1 2.3-0.2 3.5-0.2 12 0 23.1 6.8 28.6 17.7l61.5 122.9 7.6-22.7C582 424.8 594.2 416 608 416h128c17.7 0 32 14.3 32 32s-14.3 32-32 32H631.1l-24.7 74.1c-4.1 12.3-15.2 20.9-28.1 21.8-12.9 0.9-25.1-6-30.9-17.6l-57.3-114.6-43 172.1c-3.4 13.5-15 23.2-28.9 24.2-13.9 0.9-26.7-7.2-31.9-20l-56-139.9H288c-17.7 0-32-14.3-32-32s14.3-32.1 32-32.1z"  horiz-adv-x="1024" />

    
    <glyph glyph-name="PortMapping" unicode="&#59014;" d="M832.4 768.1H639.3c-35 0-63.4-28.4-63.4-63.4v-193.2c0-35 28.4-63.4 63.4-63.4h193.1c35 0 63.4 28.4 63.4 63.4V704.7c0 35.1-28.3 63.4-63.4 63.4z m-0.6-256H639.9v192h191.9v-192zM384.7 320.1H191.6c-35 0-63.4-28.4-63.4-63.4v-193.2c0-35 28.4-63.4 63.4-63.4h193.1c35 0 63.4 28.4 63.4 63.4V256.7c0 35.1-28.4 63.4-63.4 63.4z m-0.6-256H192.2v192h191.9v-192zM735.9 384.1l-96-96.1h64c0-88.2-71.7-159.9-159.9-159.9-17.7 0-32-14.3-32-32s14.3-32 32-32c59.8 0 116 23.3 158.3 65.6 42.3 42.3 65.6 98.5 65.6 158.3h64l-96 96.1zM479.9 704c-59.8 0-116-23.3-158.3-65.6-42.3-42.3-65.6-98.5-65.6-158.3h-64l95.9-96.1 96.1 96.1h-64c0 88.2 71.7 159.9 159.9 159.9 17.7 0 32 14.3 32 32s-14.3 32-32 32z"  horiz-adv-x="1024" />

    
    <glyph glyph-name="toolbox" unicode="&#59017;" d="M896.1 383.79999999999995V512.6c0 35-28.4 63.4-63.4 63.4H704V704.6c0 35-28.4 63.4-63.4 63.4h-257c-35 0-63.4-28.4-63.4-63.4V576H191.5c-35 0-63.4-28.4-63.4-63.4v-449.2c0-35 28.4-63.4 63.4-63.4h641.2c35 0 63.4 28.4 63.4 63.4V383.79999999999995zM384.2 704H640v-128H384.2V704zM192.1 512h640v-128.2H602.3c-13.2 37.2-48.6 63.8-90.3 63.8-41.7 0-77.2-26.6-90.3-63.8H192.1V512z m640-448h-640V319.79999999999995h229.6c13.2-37.2 48.6-63.8 90.3-63.8s77.2 26.6 90.3 63.8H832l0.1-255.8z"  horiz-adv-x="1024" />

    
    <glyph glyph-name="vlan" unicode="&#59022;" d="M639.2 543.9h193.1c35 0 63.4 28.4 63.4 63.4v97.4c0 35-28.4 63.4-63.4 63.4H639.2c-35 0-63.4-28.4-63.4-63.4v-97.4c0-35 28.4-63.4 63.4-63.4z m0.6 160.2h191.9v-96.2H639.8v96.2zM384.6 224.3H191.5c-35 0-63.4-28.4-63.4-63.4v-97.4c0-35 28.4-63.4 63.4-63.4h193.1c35 0 63.4 28.4 63.4 63.4v97.4c0 35.1-28.4 63.4-63.4 63.4z m-0.7-160.2H192v96.2h192l-0.1-96.2zM416.3 352H159.7c-17.7 0-32-14.3-32-32s14.3-32 32-32h256.7c17.7 0 32 14.3 32 32s-14.4 32-32.1 32zM864.1 480H607.4c-17.7 0-32-14.3-32-32s14.3-32 32-32h256.7c17.7 0 32 14.3 32 32s-14.3 32-32 32zM735.8 352.1l-96-96.1h60.8c-14.9-72.9-79.5-127.9-156.7-127.9-17.7 0-32-14.3-32-32s14.3-32 32-32c59.8 0 116 23.3 158.3 65.6 34.6 34.6 56.5 78.6 63.3 126.3h66.3l-96 96.1zM479.8 704c-59.8 0-116-23.3-158.3-65.6-34.7-34.7-56.6-78.7-63.3-126.4h-66.3l95.9-96.1 96.1 96.1h-60.8c14.8 72.9 79.5 128 156.7 128 17.7 0 32 14.3 32 32s-14.3 32-32 32z"  horiz-adv-x="1024" />

    


  </font>
</defs>
</svg>
